<svg width="16" height="15" viewBox="0 0 16 15" fill="none" xmlns="http://www.w3.org/2000/svg">
<path d="M8.00038 2.74805L7.28338 2.01105C5.60038 0.281049 2.51438 0.878049 1.40038 3.05305C0.877383 4.07605 0.759383 5.55305 1.71438 7.43805C2.63438 9.25305 4.54838 11.427 8.00038 13.795C11.4524 11.427 13.3654 9.25305 14.2864 7.43805C15.2414 5.55205 15.1244 4.07605 14.6004 3.05305C13.4864 0.878049 10.4004 0.280049 8.71738 2.01005L8.00038 2.74805ZM8.00038 15C-7.33262 4.86805 3.27938 -3.03995 7.82438 1.14305C7.88438 1.19805 7.94338 1.25505 8.00038 1.31405C8.0568 1.2551 8.11552 1.19839 8.17638 1.14405C12.7204 -3.04195 23.3334 4.86705 8.00038 15Z" fill="#23A6F0"/>
</svg>
