<svg width="61" height="37" viewBox="0 0 61 37" fill="none" xmlns="http://www.w3.org/2000/svg">
<path d="M60.7598 1.86C60.4554 1.12695 59.8729 0.544425 59.1398 0.24C58.7791 0.0862769 58.3918 0.00473996 57.9998 0H42.9998C42.2042 0 41.4411 0.316071 40.8785 0.87868C40.3159 1.44129 39.9998 2.20435 39.9998 3C39.9998 3.79565 40.3159 4.55871 40.8785 5.12132C41.4411 5.68393 42.2042 6 42.9998 6H50.7698L33.9998 22.77L24.1298 12.87C23.8509 12.5888 23.5191 12.3656 23.1535 12.2133C22.788 12.061 22.3959 11.9826 21.9998 11.9826C21.6038 11.9826 21.2117 12.061 20.8461 12.2133C20.4805 12.3656 20.1487 12.5888 19.8698 12.87L1.86982 30.87C1.58863 31.1489 1.36545 31.4807 1.21314 31.8463C1.06084 32.2118 0.982422 32.604 0.982422 33C0.982422 33.396 1.06084 33.7882 1.21314 34.1537C1.36545 34.5193 1.58863 34.8511 1.86982 35.13C2.14871 35.4112 2.48051 35.6344 2.84609 35.7867C3.21166 35.939 3.60378 36.0174 3.99982 36.0174C4.39585 36.0174 4.78797 35.939 5.15355 35.7867C5.51912 35.6344 5.85093 35.4112 6.12982 35.13L21.9998 19.23L31.8698 29.13C32.1487 29.4112 32.4805 29.6344 32.8461 29.7867C33.2117 29.939 33.6038 30.0174 33.9998 30.0174C34.3959 30.0174 34.788 29.939 35.1535 29.7867C35.5191 29.6344 35.8509 29.4112 36.1298 29.13L54.9998 10.23V18C54.9998 18.7956 55.3159 19.5587 55.8785 20.1213C56.4411 20.6839 57.2042 21 57.9998 21C58.7955 21 59.5585 20.6839 60.1211 20.1213C60.6838 19.5587 60.9998 18.7956 60.9998 18V3C60.9951 2.60797 60.9135 2.22067 60.7598 1.86Z" fill="#23A6F0"/>
</svg>
