<svg width="15" height="15" viewBox="0 0 15 15" fill="none" xmlns="http://www.w3.org/2000/svg">
<path d="M0.000488281 0.5C0.000488281 0.367392 0.0531667 0.240215 0.146935 0.146447C0.240703 0.0526784 0.36788 0 0.500488 0H2.00049C2.11202 3.08115e-05 2.22034 0.0373507 2.30822 0.106025C2.3961 0.174699 2.4585 0.270784 2.48549 0.379L2.89049 2H14.5005C14.5739 2.00007 14.6464 2.0163 14.7128 2.04755C14.7793 2.0788 14.838 2.12429 14.8849 2.1808C14.9317 2.23731 14.9656 2.30345 14.984 2.37452C15.0024 2.44558 15.005 2.51984 14.9915 2.592L13.4915 10.592C13.47 10.7066 13.4092 10.8101 13.3196 10.8846C13.2299 10.9591 13.1171 10.9999 13.0005 11H4.00049C3.88392 10.9999 3.77105 10.9591 3.6814 10.8846C3.59174 10.8101 3.53094 10.7066 3.50949 10.592L2.01049 2.607L1.61049 1H0.500488C0.36788 1 0.240703 0.947322 0.146935 0.853553C0.0531667 0.759785 0.000488281 0.632608 0.000488281 0.5ZM3.10249 3L4.41549 10H12.5855L13.8985 3H3.10249ZM5.00049 11C4.47006 11 3.96135 11.2107 3.58627 11.5858C3.2112 11.9609 3.00049 12.4696 3.00049 13C3.00049 13.5304 3.2112 14.0391 3.58627 14.4142C3.96135 14.7893 4.47006 15 5.00049 15C5.53092 15 6.03963 14.7893 6.4147 14.4142C6.78977 14.0391 7.00049 13.5304 7.00049 13C7.00049 12.4696 6.78977 11.9609 6.4147 11.5858C6.03963 11.2107 5.53092 11 5.00049 11ZM12.0005 11C11.4701 11 10.9613 11.2107 10.5863 11.5858C10.2112 11.9609 10.0005 12.4696 10.0005 13C10.0005 13.5304 10.2112 14.0391 10.5863 14.4142C10.9613 14.7893 11.4701 15 12.0005 15C12.5309 15 13.0396 14.7893 13.4147 14.4142C13.7898 14.0391 14.0005 13.5304 14.0005 13C14.0005 12.4696 13.7898 11.9609 13.4147 11.5858C13.0396 11.2107 12.5309 11 12.0005 11ZM5.00049 12C5.2657 12 5.52006 12.1054 5.70759 12.2929C5.89513 12.4804 6.00049 12.7348 6.00049 13C6.00049 13.2652 5.89513 13.5196 5.70759 13.7071C5.52006 13.8946 5.2657 14 5.00049 14C4.73527 14 4.48092 13.8946 4.29338 13.7071C4.10585 13.5196 4.00049 13.2652 4.00049 13C4.00049 12.7348 4.10585 12.4804 4.29338 12.2929C4.48092 12.1054 4.73527 12 5.00049 12ZM12.0005 12C12.2657 12 12.5201 12.1054 12.7076 12.2929C12.8951 12.4804 13.0005 12.7348 13.0005 13C13.0005 13.2652 12.8951 13.5196 12.7076 13.7071C12.5201 13.8946 12.2657 14 12.0005 14C11.7353 14 11.4809 13.8946 11.2934 13.7071C11.1058 13.5196 11.0005 13.2652 11.0005 13C11.0005 12.7348 11.1058 12.4804 11.2934 12.2929C11.4809 12.1054 11.7353 12 12.0005 12Z" fill="#23A6F0"/>
</svg>
